<svg xmlns="http://www.w3.org/2000/svg" viewBox="0 0 512 512">
  <defs>
    <linearGradient id="bg" x1="32" x2="480" y1="24" y2="488" gradientUnits="userSpaceOnUse">
      <stop offset="0" stop-color="#0b5d56" />
      <stop offset="1" stop-color="#157f73" />
    </linearGradient>
    <linearGradient id="card" x1="96" x2="416" y1="96" y2="416" gradientUnits="userSpaceOnUse">
      <stop offset="0" stop-color="#f7f2e8" />
      <stop offset="1" stop-color="#efe7d8" />
    </linearGradient>
  </defs>
  <rect width="512" height="512" rx="128" fill="url(#bg)" />
  <rect x="96" y="88" width="320" height="336" rx="48" fill="url(#card)" />
  <rect x="148" y="152" width="216" height="28" rx="14" fill="#0b5d56" opacity="0.16" />
  <rect x="148" y="206" width="180" height="28" rx="14" fill="#0b5d56" opacity="0.16" />
  <rect x="148" y="260" width="216" height="28" rx="14" fill="#0b5d56" opacity="0.16" />
  <path
    fill="#0b5d56"
    d="M164 334c0-44.183 35.817-80 80-80h33c39.765 0 73 30.535 76.599 69.366l2.109 22.766c1.093 11.801-8.196 21.868-20.047 21.868H184.339c-11.851 0-21.14-10.067-20.047-21.868Z"
  />
</svg>
