<svg xmlns="http://www.w3.org/2000/svg" viewBox="0 0 512 512">
  <rect width="512" height="512" rx="120" fill="#f2ebde" />
  <rect x="84" y="84" width="344" height="344" rx="88" fill="#0b5d56" />
  <path
    fill="#f7f2e8"
    d="M170 164h172c19.882 0 36 16.118 36 36v112c0 19.882-16.118 36-36 36H170c-19.882 0-36-16.118-36-36V200c0-19.882 16.118-36 36-36Zm26 52c-11.046 0-20 8.954-20 20s8.954 20 20 20h120c11.046 0 20-8.954 20-20s-8.954-20-20-20Zm0 68c-11.046 0-20 8.954-20 20s8.954 20 20 20h84c11.046 0 20-8.954 20-20s-8.954-20-20-20Z"
  />
</svg>
